<svg width="567" height="618" viewBox="0 0 567 618" fill="none" xmlns="http://www.w3.org/2000/svg">
<g filter="url(#filter0_f_482_1027)">
<path d="M22.8543 444.147C27.0771 509.604 22.8543 612.11 22.8543 612.11H339.097C342.951 604.987 345.272 602.203 350.487 595.949L350.598 595.816C355.891 589.468 363.681 589.418 371.838 588.525C387.377 586.825 407.767 586.825 407.767 586.825H440.295C440.295 586.825 462.623 587.918 476.352 584.641C482.539 583.164 485.915 582.236 491.335 578.906C496.228 575.901 499.035 574.361 502.804 570.028C507.49 564.638 508.614 563.762 510.573 556.894C512.411 550.451 512.579 538.965 512.579 538.965V413.444L560.467 397.189L545.107 292.438C545.107 292.438 543.711 250.119 537.879 223.808C533.726 205.075 530.426 194.713 523.422 176.85C516.569 159.373 512.303 149.599 502.64 133.505C493.67 118.564 487.766 110.625 476.437 97.3835C463.626 82.4089 455.741 74.4041 440.295 62.1653C424.877 49.9487 415.346 44.0242 397.828 35.0745C376.057 23.9519 362.92 18.895 339.097 13.4018C317.303 8.37614 304.52 8.03709 282.174 7.08063L281.17 7.03764C267.687 6.45962 259.774 6.12039 246.032 7.08063C229.653 8.22502 220.359 9.2728 204.468 13.4018C188.041 17.6703 179.166 21.528 163.808 28.7533C148.365 36.0186 139.962 40.815 125.859 50.4259C113.612 58.7723 107.19 64.138 96.042 73.9047C86.0965 82.6182 80.4321 87.502 71.6461 97.3835C62.2711 107.927 57.6447 114.447 49.9609 126.28C42.4795 137.802 38.6873 144.575 32.7934 156.983C25.5145 172.308 22.2152 181.342 17.4332 197.62C11.8577 216.598 9.16405 227.576 7.49413 247.286C6.24371 262.045 7.07479 270.408 7.49413 285.213C8.57803 323.482 13.8677 344.623 17.4332 382.741C19.6753 406.71 21.3044 420.123 22.8543 444.147Z" stroke="black" stroke-width="11"/>
</g>
<g filter="url(#filter1_f_482_1027)">
<path d="M58.9172 420.008C62.5561 476.414 58.9172 564.746 58.9172 564.746H331.43C334.75 558.608 336.751 556.208 341.245 550.819L341.34 550.705C345.901 545.235 352.614 545.191 359.643 544.422C373.033 542.957 390.604 542.957 390.604 542.957H418.634C418.634 542.957 437.874 543.899 449.704 541.075C455.036 539.802 457.945 539.002 462.616 536.133C466.832 533.544 469.251 532.216 472.499 528.482C476.537 523.838 477.505 523.083 479.193 517.165C480.777 511.612 480.922 501.715 480.922 501.715V393.551L522.189 379.544L508.952 289.278C508.952 289.278 507.749 252.811 502.723 230.138C499.145 213.996 496.301 205.067 490.266 189.674C484.361 174.614 480.684 166.191 472.358 152.322C464.628 139.447 459.541 132.607 449.778 121.196C438.738 108.292 431.944 101.394 418.634 90.8478C405.348 80.3205 397.135 75.2152 382.039 67.5031C363.279 57.9185 351.958 53.5609 331.43 48.8273C312.649 44.4966 301.634 44.2044 282.378 43.3802L281.513 43.3432C269.894 42.8451 263.076 42.5528 251.233 43.3802C237.12 44.3664 229.11 45.2693 215.417 48.8273C201.262 52.5055 193.614 55.8298 180.38 62.056C167.072 68.3166 159.831 72.4498 147.678 80.7317C137.125 87.9239 131.591 92.5476 121.984 100.964C113.414 108.472 108.533 112.681 100.962 121.196C92.8834 130.282 88.8967 135.9 82.2754 146.097C75.8286 156.025 72.5608 161.861 67.4819 172.554C61.2096 185.76 58.3665 193.545 54.2458 207.571C49.4412 223.926 47.12 233.386 45.681 250.37C44.6035 263.088 45.3197 270.294 45.681 283.053C46.615 316.029 51.1733 334.247 54.2458 367.094C56.1778 387.748 57.5816 399.306 58.9172 420.008Z" stroke="black" stroke-width="11"/>
</g>
<g filter="url(#filter2_f_482_1027)">
<path d="M85.684 406.168C88.8895 455.856 85.684 533.667 85.684 533.667H325.74C328.664 528.26 330.427 526.146 334.385 521.399L334.469 521.298C338.487 516.48 344.4 516.441 350.593 515.764C362.388 514.473 377.866 514.473 377.866 514.473H402.557C402.557 514.473 419.506 515.303 429.927 512.815C434.624 511.694 437.187 510.989 441.301 508.462C445.015 506.181 447.146 505.012 450.007 501.722C453.564 497.632 454.417 496.966 455.904 491.753C457.299 486.862 457.427 478.143 457.427 478.143V382.862L493.779 370.523L482.119 291.008C482.119 291.008 481.059 258.884 476.632 238.912C473.48 224.692 470.975 216.827 465.658 203.267C460.456 190 457.217 182.581 449.883 170.364C443.074 159.023 438.592 152.997 429.992 142.945C420.267 131.578 414.283 125.502 402.557 116.211C390.854 106.938 383.619 102.441 370.321 95.6471C353.795 87.2041 343.823 83.3655 325.74 79.1957C309.195 75.3808 299.492 75.1234 282.53 74.3974L281.768 74.3647C271.533 73.926 265.527 73.6685 255.095 74.3974C242.662 75.2661 235.607 76.0614 223.545 79.1957C211.075 82.4358 204.338 85.3642 192.68 90.8488C180.958 96.3637 174.579 100.005 163.874 107.3C154.577 113.636 149.702 117.709 141.24 125.123C133.69 131.737 129.39 135.444 122.721 142.945C115.605 150.949 112.093 155.898 106.26 164.88C100.581 173.626 97.7026 178.767 93.2286 188.186C87.7033 199.819 85.1989 206.677 81.5689 219.033C77.3367 233.439 75.2919 241.773 74.0243 256.734C73.0751 267.937 73.706 274.285 74.0243 285.524C74.8471 314.573 78.8624 330.621 81.5689 359.556C83.2709 377.75 84.5075 387.932 85.684 406.168Z" stroke="black" stroke-width="11"/>
</g>
<g filter="url(#filter3_f_482_1027)">
<path d="M114.047 390.308C116.794 432.877 114.047 499.539 114.047 499.539H319.709C322.215 494.907 323.725 493.096 327.116 489.029L327.188 488.943C330.63 484.814 335.696 484.782 341.001 484.201C351.106 483.096 364.367 483.096 364.367 483.096H385.521C385.521 483.096 400.041 483.806 408.969 481.675C412.993 480.715 415.188 480.111 418.713 477.946C421.895 475.991 423.721 474.99 426.172 472.172C429.219 468.667 429.95 468.097 431.224 463.63C432.419 459.44 432.529 451.971 432.529 451.971V370.341L463.672 359.77L453.683 291.647C453.683 291.647 452.775 264.126 448.982 247.015C446.281 234.833 444.135 228.094 439.58 216.477C435.124 205.112 432.349 198.755 426.065 188.289C420.232 178.572 416.393 173.41 409.025 164.798C400.693 155.06 395.566 149.854 385.521 141.895C375.494 133.95 369.296 130.097 357.903 124.277C343.745 117.044 335.201 113.755 319.709 110.183C305.535 106.914 297.222 106.694 282.69 106.072L282.037 106.044C273.269 105.668 268.123 105.447 259.186 106.072C248.535 106.816 242.49 107.497 232.156 110.183C221.473 112.958 215.702 115.467 205.714 120.166C195.671 124.891 190.206 128.01 181.034 134.26C173.07 139.688 168.893 143.178 161.643 149.529C155.176 155.196 151.492 158.372 145.778 164.798C139.681 171.655 136.673 175.895 131.676 183.591C126.81 191.083 124.344 195.488 120.511 203.558C115.778 213.523 113.632 219.399 110.522 229.984C106.896 242.327 105.144 249.466 104.058 262.284C103.245 271.882 103.786 277.321 104.058 286.949C104.763 311.836 108.203 325.585 110.522 350.374C111.98 365.961 113.04 374.684 114.047 390.308Z" stroke="black" stroke-width="11"/>
</g>
<g filter="url(#filter4_f_482_1027)">
<path d="M144.551 377.44C146.804 412.353 144.551 467.025 144.551 467.025H313.224C315.279 463.226 316.517 461.741 319.299 458.405L319.358 458.335C322.181 454.949 326.336 454.922 330.687 454.446C338.974 453.539 349.85 453.539 349.85 453.539H367.199C367.199 453.539 379.108 454.122 386.43 452.374C389.73 451.587 391.531 451.091 394.422 449.316C397.031 447.713 398.529 446.891 400.539 444.58C403.038 441.706 403.637 441.238 404.682 437.575C405.663 434.138 405.753 428.012 405.753 428.012V361.064L431.294 352.394L423.102 296.524C423.102 296.524 422.357 273.953 419.246 259.919C417.032 249.928 415.271 244.401 411.536 234.874C407.881 225.552 405.605 220.339 400.451 211.755C395.667 203.786 392.518 199.552 386.476 192.489C379.643 184.502 375.437 180.233 367.199 173.705C358.975 167.189 353.892 164.029 344.549 159.256C332.937 153.324 325.93 150.626 313.224 147.697C301.599 145.016 294.781 144.835 282.863 144.325L282.328 144.302C275.136 143.994 270.916 143.813 263.586 144.325C254.85 144.935 249.893 145.494 241.418 147.697C232.656 149.973 227.923 152.031 219.731 155.884C211.494 159.76 207.013 162.318 199.49 167.444C192.958 171.896 189.533 174.757 183.587 179.967C178.283 184.614 175.261 187.219 170.575 192.489C165.575 198.113 163.107 201.59 159.009 207.902C155.019 214.047 152.996 217.659 149.853 224.278C145.97 232.451 144.211 237.27 141.66 245.952C138.686 256.074 137.25 261.929 136.359 272.442C135.692 280.314 136.135 284.774 136.359 292.671C136.937 313.082 139.758 324.358 141.66 344.688C142.856 357.472 143.725 364.626 144.551 377.44Z" stroke="black" stroke-width="11"/>
</g>
<g filter="url(#filter5_f_482_1027)">
<path d="M177.137 364.37C178.862 391.104 177.137 432.968 177.137 432.968H306.295C307.869 430.059 308.817 428.922 310.947 426.368L310.992 426.314C313.154 423.721 316.336 423.701 319.667 423.336C326.013 422.642 334.341 422.642 334.341 422.642H347.626C347.626 422.642 356.745 423.088 362.352 421.75C364.879 421.146 366.258 420.767 368.471 419.408C370.47 418.18 371.616 417.551 373.155 415.781C375.069 413.58 375.528 413.222 376.328 410.417C377.079 407.786 377.148 403.095 377.148 403.095V351.83L396.706 345.191L390.433 302.409C390.433 302.409 389.863 285.126 387.481 274.38C385.785 266.729 384.437 262.497 381.576 255.202C378.778 248.064 377.035 244.072 373.089 237.499C369.425 231.397 367.014 228.155 362.387 222.746C357.155 216.631 353.935 213.361 347.626 208.363C341.329 203.373 337.436 200.954 330.282 197.299C321.39 192.756 316.025 190.691 306.295 188.447C297.394 186.395 292.173 186.256 283.047 185.865L282.637 185.848C277.13 185.612 273.899 185.473 268.286 185.865C261.597 186.333 257.801 186.761 251.311 188.447C244.602 190.19 240.977 191.766 234.705 194.717C228.398 197.684 224.966 199.643 219.206 203.568C214.204 206.977 211.581 209.168 207.028 213.157C202.966 216.716 200.653 218.711 197.064 222.746C193.235 227.053 191.346 229.715 188.208 234.548C185.152 239.254 183.604 242.02 181.196 247.088C178.224 253.347 176.876 257.036 174.923 263.684C172.646 271.435 171.546 275.919 170.864 283.969C170.353 289.997 170.692 293.412 170.864 299.459C171.306 315.088 173.467 323.723 174.923 339.29C175.839 349.08 176.504 354.558 177.137 364.37Z" stroke="black" stroke-width="11"/>
</g>
<defs>
<filter id="filter0_f_482_1027" x="0.933984" y="0.577051" width="566.04" height="617.433" filterUnits="userSpaceOnUse" color-interpolation-filters="sRGB">
<feFlood flood-opacity="0" result="BackgroundImageFix"/>
<feBlend mode="normal" in="SourceGraphic" in2="BackgroundImageFix" result="shape"/>
<feGaussianBlur stdDeviation="0.2" result="effect1_foregroundBlur_482_1027"/>
</filter>
<filter id="filter1_f_482_1027" x="39.2123" y="36.9601" width="489.483" height="533.685" filterUnits="userSpaceOnUse" color-interpolation-filters="sRGB">
<feFlood flood-opacity="0" result="BackgroundImageFix"/>
<feBlend mode="normal" in="SourceGraphic" in2="BackgroundImageFix" result="shape"/>
<feGaussianBlur stdDeviation="0.2" result="effect1_foregroundBlur_482_1027"/>
</filter>
<filter id="filter2_f_482_1027" x="67.6234" y="68.0392" width="432.662" height="471.528" filterUnits="userSpaceOnUse" color-interpolation-filters="sRGB">
<feFlood flood-opacity="0" result="BackgroundImageFix"/>
<feBlend mode="normal" in="SourceGraphic" in2="BackgroundImageFix" result="shape"/>
<feGaussianBlur stdDeviation="0.2" result="effect1_foregroundBlur_482_1027"/>
</filter>
<filter id="filter3_f_482_1027" x="97.7294" y="99.7792" width="372.449" height="405.66" filterUnits="userSpaceOnUse" color-interpolation-filters="sRGB">
<feFlood flood-opacity="0" result="BackgroundImageFix"/>
<feBlend mode="normal" in="SourceGraphic" in2="BackgroundImageFix" result="shape"/>
<feGaussianBlur stdDeviation="0.2" result="effect1_foregroundBlur_482_1027"/>
</filter>
<filter id="filter4_f_482_1027" x="130.107" y="138.103" width="307.694" height="334.822" filterUnits="userSpaceOnUse" color-interpolation-filters="sRGB">
<feFlood flood-opacity="0" result="BackgroundImageFix"/>
<feBlend mode="normal" in="SourceGraphic" in2="BackgroundImageFix" result="shape"/>
<feGaussianBlur stdDeviation="0.2" result="effect1_foregroundBlur_482_1027"/>
</filter>
<filter id="filter5_f_482_1027" x="164.695" y="179.719" width="238.518" height="259.15" filterUnits="userSpaceOnUse" color-interpolation-filters="sRGB">
<feFlood flood-opacity="0" result="BackgroundImageFix"/>
<feBlend mode="normal" in="SourceGraphic" in2="BackgroundImageFix" result="shape"/>
<feGaussianBlur stdDeviation="0.2" result="effect1_foregroundBlur_482_1027"/>
</filter>
</defs>
</svg>
